<mxfile host="www.draw.io" modified="2020-01-18T22:04:57.920Z" agent="Mozilla/5.0 (Windows NT 10.0; Win64; x64; rv:72.0) Gecko/20100101 Firefox/72.0" etag="mfosClAGuyUmLUYYNZIb" version="12.5.5" type="github">
  <diagram id="PHB8jPXl83IMQZfGtq3V" name="Page-1">
    <mxGraphModel dx="862" dy="429" grid="1" gridSize="10" guides="1" tooltips="1" connect="1" arrows="1" fold="1" page="1" pageScale="1" pageWidth="827" pageHeight="1169" math="0" shadow="0">
      <root>
        <mxCell id="0"/>
        <mxCell id="1" parent="0"/>
        <mxCell id="zfK5H7DSimlVYT1N3bj3-96" style="edgeStyle=orthogonalEdgeStyle;rounded=0;orthogonalLoop=1;jettySize=auto;html=1;exitX=0.5;exitY=1;exitDx=0;exitDy=0;" parent="1" source="zfK5H7DSimlVYT1N3bj3-58" edge="1">
          <mxGeometry relative="1" as="geometry">
            <mxPoint x="480" y="469" as="targetPoint"/>
            <Array as="points">
              <mxPoint x="615" y="469"/>
            </Array>
          </mxGeometry>
        </mxCell>
        <mxCell id="zfK5H7DSimlVYT1N3bj3-58" value="" style="rounded=0;whiteSpace=wrap;html=1;" parent="1" vertex="1">
          <mxGeometry x="583.25" y="349" width="62.5" height="40" as="geometry"/>
        </mxCell>
        <mxCell id="zfK5H7DSimlVYT1N3bj3-30" style="edgeStyle=orthogonalEdgeStyle;rounded=0;orthogonalLoop=1;jettySize=auto;html=1;entryX=0.5;entryY=0;entryDx=0;entryDy=0;" parent="1" source="zfK5H7DSimlVYT1N3bj3-1" target="zfK5H7DSimlVYT1N3bj3-29" edge="1">
          <mxGeometry relative="1" as="geometry"/>
        </mxCell>
        <mxCell id="zfK5H7DSimlVYT1N3bj3-1" value="" style="rhombus;whiteSpace=wrap;html=1;" parent="1" vertex="1">
          <mxGeometry x="263" y="109" width="80" height="80" as="geometry"/>
        </mxCell>
        <mxCell id="zfK5H7DSimlVYT1N3bj3-2" value="" style="rhombus;whiteSpace=wrap;html=1;" parent="1" vertex="1">
          <mxGeometry x="82" y="189" width="80" height="80" as="geometry"/>
        </mxCell>
        <mxCell id="zfK5H7DSimlVYT1N3bj3-73" style="edgeStyle=orthogonalEdgeStyle;rounded=0;orthogonalLoop=1;jettySize=auto;html=1;exitX=1;exitY=0.5;exitDx=0;exitDy=0;entryX=0.5;entryY=0;entryDx=0;entryDy=0;" parent="1" source="zfK5H7DSimlVYT1N3bj3-3" target="zfK5H7DSimlVYT1N3bj3-71" edge="1">
          <mxGeometry relative="1" as="geometry"/>
        </mxCell>
        <mxCell id="zfK5H7DSimlVYT1N3bj3-97" style="edgeStyle=orthogonalEdgeStyle;rounded=0;orthogonalLoop=1;jettySize=auto;html=1;exitX=0;exitY=0.5;exitDx=0;exitDy=0;" parent="1" source="zfK5H7DSimlVYT1N3bj3-3" edge="1">
          <mxGeometry relative="1" as="geometry">
            <mxPoint x="280" y="469" as="targetPoint"/>
            <Array as="points">
              <mxPoint x="320" y="229"/>
              <mxPoint x="320" y="469"/>
            </Array>
          </mxGeometry>
        </mxCell>
        <mxCell id="zfK5H7DSimlVYT1N3bj3-3" value="" style="rhombus;whiteSpace=wrap;html=1;" parent="1" vertex="1">
          <mxGeometry x="361" y="189" width="80" height="80" as="geometry"/>
        </mxCell>
        <mxCell id="zfK5H7DSimlVYT1N3bj3-4" value="" style="endArrow=classic;html=1;exitX=0;exitY=0.5;exitDx=0;exitDy=0;entryX=0.5;entryY=0;entryDx=0;entryDy=0;" parent="1" source="zfK5H7DSimlVYT1N3bj3-1" target="zfK5H7DSimlVYT1N3bj3-2" edge="1">
          <mxGeometry width="50" height="50" relative="1" as="geometry">
            <mxPoint x="282" y="239" as="sourcePoint"/>
            <mxPoint x="122" y="149" as="targetPoint"/>
            <Array as="points">
              <mxPoint x="122" y="149"/>
            </Array>
          </mxGeometry>
        </mxCell>
        <mxCell id="zfK5H7DSimlVYT1N3bj3-6" value="" style="endArrow=classic;html=1;exitX=0;exitY=0.5;exitDx=0;exitDy=0;entryX=0.5;entryY=0;entryDx=0;entryDy=0;" parent="1" target="zfK5H7DSimlVYT1N3bj3-3" edge="1">
          <mxGeometry width="50" height="50" relative="1" as="geometry">
            <mxPoint x="361" y="149" as="sourcePoint"/>
            <mxPoint x="201" y="189" as="targetPoint"/>
            <Array as="points">
              <mxPoint x="401" y="149"/>
            </Array>
          </mxGeometry>
        </mxCell>
        <mxCell id="zfK5H7DSimlVYT1N3bj3-7" value="" style="whiteSpace=wrap;html=1;aspect=fixed;" parent="1" vertex="1">
          <mxGeometry x="2" y="309" width="40" height="40" as="geometry"/>
        </mxCell>
        <mxCell id="zfK5H7DSimlVYT1N3bj3-8" value="" style="whiteSpace=wrap;html=1;aspect=fixed;" parent="1" vertex="1">
          <mxGeometry x="202" y="309" width="40" height="40" as="geometry"/>
        </mxCell>
        <mxCell id="zfK5H7DSimlVYT1N3bj3-9" value="" style="whiteSpace=wrap;html=1;aspect=fixed;" parent="1" vertex="1">
          <mxGeometry x="102" y="309" width="40" height="40" as="geometry"/>
        </mxCell>
        <mxCell id="zfK5H7DSimlVYT1N3bj3-10" value="" style="whiteSpace=wrap;html=1;aspect=fixed;" parent="1" vertex="1">
          <mxGeometry x="102" y="389" width="40" height="40" as="geometry"/>
        </mxCell>
        <mxCell id="zfK5H7DSimlVYT1N3bj3-11" value="" style="endArrow=classic;html=1;exitX=0;exitY=0.5;exitDx=0;exitDy=0;entryX=0.5;entryY=0;entryDx=0;entryDy=0;" parent="1" target="zfK5H7DSimlVYT1N3bj3-7" edge="1">
          <mxGeometry width="50" height="50" relative="1" as="geometry">
            <mxPoint x="82" y="229" as="sourcePoint"/>
            <mxPoint x="22" y="299" as="targetPoint"/>
            <Array as="points">
              <mxPoint x="22" y="229"/>
            </Array>
          </mxGeometry>
        </mxCell>
        <mxCell id="zfK5H7DSimlVYT1N3bj3-14" value="" style="endArrow=classic;html=1;exitX=1;exitY=0.5;exitDx=0;exitDy=0;entryX=0.5;entryY=0;entryDx=0;entryDy=0;" parent="1" source="zfK5H7DSimlVYT1N3bj3-2" edge="1">
          <mxGeometry width="50" height="50" relative="1" as="geometry">
            <mxPoint x="282" y="229" as="sourcePoint"/>
            <mxPoint x="222" y="309" as="targetPoint"/>
            <Array as="points">
              <mxPoint x="222" y="229"/>
            </Array>
          </mxGeometry>
        </mxCell>
        <mxCell id="zfK5H7DSimlVYT1N3bj3-15" value="" style="endArrow=classic;html=1;" parent="1" edge="1">
          <mxGeometry width="50" height="50" relative="1" as="geometry">
            <mxPoint x="52" y="449" as="sourcePoint"/>
            <mxPoint x="52" y="449" as="targetPoint"/>
          </mxGeometry>
        </mxCell>
        <mxCell id="zfK5H7DSimlVYT1N3bj3-16" value="" style="endArrow=classic;startArrow=classic;html=1;entryX=0.5;entryY=1;entryDx=0;entryDy=0;exitX=0.5;exitY=0;exitDx=0;exitDy=0;" parent="1" source="zfK5H7DSimlVYT1N3bj3-10" target="zfK5H7DSimlVYT1N3bj3-9" edge="1">
          <mxGeometry width="50" height="50" relative="1" as="geometry">
            <mxPoint x="2" y="529" as="sourcePoint"/>
            <mxPoint x="52" y="479" as="targetPoint"/>
          </mxGeometry>
        </mxCell>
        <mxCell id="zfK5H7DSimlVYT1N3bj3-17" value="" style="endArrow=classic;startArrow=classic;html=1;entryX=0.5;entryY=1;entryDx=0;entryDy=0;exitX=0;exitY=0.5;exitDx=0;exitDy=0;" parent="1" source="zfK5H7DSimlVYT1N3bj3-10" target="zfK5H7DSimlVYT1N3bj3-7" edge="1">
          <mxGeometry width="50" height="50" relative="1" as="geometry">
            <mxPoint x="2" y="529" as="sourcePoint"/>
            <mxPoint x="52" y="479" as="targetPoint"/>
            <Array as="points">
              <mxPoint x="22" y="409"/>
            </Array>
          </mxGeometry>
        </mxCell>
        <mxCell id="zfK5H7DSimlVYT1N3bj3-18" value="" style="endArrow=classic;startArrow=classic;html=1;entryX=1;entryY=0.5;entryDx=0;entryDy=0;exitX=0.5;exitY=1;exitDx=0;exitDy=0;entryPerimeter=0;" parent="1" source="zfK5H7DSimlVYT1N3bj3-8" target="zfK5H7DSimlVYT1N3bj3-10" edge="1">
          <mxGeometry width="50" height="50" relative="1" as="geometry">
            <mxPoint x="272" y="379" as="sourcePoint"/>
            <mxPoint x="192" y="319" as="targetPoint"/>
            <Array as="points">
              <mxPoint x="220" y="409"/>
            </Array>
          </mxGeometry>
        </mxCell>
        <mxCell id="zfK5H7DSimlVYT1N3bj3-35" style="edgeStyle=orthogonalEdgeStyle;rounded=0;orthogonalLoop=1;jettySize=auto;html=1;exitX=1;exitY=0.5;exitDx=0;exitDy=0;entryX=0.5;entryY=0;entryDx=0;entryDy=0;" parent="1" source="zfK5H7DSimlVYT1N3bj3-29" target="zfK5H7DSimlVYT1N3bj3-34" edge="1">
          <mxGeometry relative="1" as="geometry"/>
        </mxCell>
        <mxCell id="zfK5H7DSimlVYT1N3bj3-29" value="" style="rhombus;whiteSpace=wrap;html=1;" parent="1" vertex="1">
          <mxGeometry x="642" y="189" width="80" height="80" as="geometry"/>
        </mxCell>
        <mxCell id="zfK5H7DSimlVYT1N3bj3-33" value="" style="endArrow=classic;html=1;" parent="1" edge="1">
          <mxGeometry width="50" height="50" relative="1" as="geometry">
            <mxPoint x="302.76" y="79" as="sourcePoint"/>
            <mxPoint x="302.76" y="109" as="targetPoint"/>
            <Array as="points"/>
          </mxGeometry>
        </mxCell>
        <mxCell id="zfK5H7DSimlVYT1N3bj3-37" style="edgeStyle=orthogonalEdgeStyle;rounded=0;orthogonalLoop=1;jettySize=auto;html=1;exitX=0;exitY=0.5;exitDx=0;exitDy=0;" parent="1" source="zfK5H7DSimlVYT1N3bj3-34" edge="1">
          <mxGeometry relative="1" as="geometry">
            <mxPoint x="697.1428571428571" y="369" as="targetPoint"/>
          </mxGeometry>
        </mxCell>
        <mxCell id="zfK5H7DSimlVYT1N3bj3-64" style="edgeStyle=orthogonalEdgeStyle;rounded=0;orthogonalLoop=1;jettySize=auto;html=1;exitX=1;exitY=0.5;exitDx=0;exitDy=0;entryX=0.629;entryY=-0.003;entryDx=0;entryDy=0;entryPerimeter=0;" parent="1" source="zfK5H7DSimlVYT1N3bj3-34" target="zfK5H7DSimlVYT1N3bj3-38" edge="1">
          <mxGeometry relative="1" as="geometry"/>
        </mxCell>
        <mxCell id="zfK5H7DSimlVYT1N3bj3-34" value="" style="rhombus;whiteSpace=wrap;html=1;" parent="1" vertex="1">
          <mxGeometry x="719" y="299" width="60" height="60" as="geometry"/>
        </mxCell>
        <mxCell id="zfK5H7DSimlVYT1N3bj3-38" value="" style="shape=parallelogram;perimeter=parallelogramPerimeter;whiteSpace=wrap;html=1;" parent="1" vertex="1">
          <mxGeometry x="767" y="369" width="60" height="30" as="geometry"/>
        </mxCell>
        <mxCell id="zfK5H7DSimlVYT1N3bj3-40" value="numeros" style="text;html=1;strokeColor=none;fillColor=none;align=center;verticalAlign=middle;whiteSpace=wrap;rounded=0;" parent="1" vertex="1">
          <mxGeometry x="227" y="119" width="40" height="20" as="geometry"/>
        </mxCell>
        <mxCell id="zfK5H7DSimlVYT1N3bj3-41" value="&lt;div&gt;operadores&lt;/div&gt;" style="text;html=1;strokeColor=none;fillColor=none;align=center;verticalAlign=middle;whiteSpace=wrap;rounded=0;" parent="1" vertex="1">
          <mxGeometry x="347" y="119" width="40" height="20" as="geometry"/>
        </mxCell>
        <mxCell id="zfK5H7DSimlVYT1N3bj3-42" value="&lt;font style=&quot;font-size: 8px&quot;&gt;operador&lt;/font&gt;" style="text;html=1;strokeColor=none;fillColor=none;align=center;verticalAlign=middle;whiteSpace=wrap;rounded=0;" parent="1" vertex="1">
          <mxGeometry x="112.5" y="317" width="15" height="20" as="geometry"/>
        </mxCell>
        <mxCell id="zfK5H7DSimlVYT1N3bj3-43" value="&lt;div&gt;N1&lt;/div&gt;" style="text;html=1;strokeColor=none;fillColor=none;align=center;verticalAlign=middle;whiteSpace=wrap;rounded=0;" parent="1" vertex="1">
          <mxGeometry x="12.5" y="319" width="15" height="20" as="geometry"/>
        </mxCell>
        <mxCell id="zfK5H7DSimlVYT1N3bj3-44" value="&lt;div&gt;N2&lt;/div&gt;" style="text;html=1;strokeColor=none;fillColor=none;align=center;verticalAlign=middle;whiteSpace=wrap;rounded=0;" parent="1" vertex="1">
          <mxGeometry x="212" y="319" width="15" height="20" as="geometry"/>
        </mxCell>
        <mxCell id="zfK5H7DSimlVYT1N3bj3-45" value="=" style="text;html=1;strokeColor=none;fillColor=none;align=center;verticalAlign=middle;whiteSpace=wrap;rounded=0;fontSize=27;" parent="1" vertex="1">
          <mxGeometry x="112.5" y="399" width="15" height="20" as="geometry"/>
        </mxCell>
        <mxCell id="zfK5H7DSimlVYT1N3bj3-46" value="&lt;font style=&quot;font-size: 14px;&quot;&gt;operador&lt;/font&gt;" style="text;html=1;strokeColor=none;fillColor=none;align=center;verticalAlign=middle;whiteSpace=wrap;rounded=0;fontSize=14;" parent="1" vertex="1">
          <mxGeometry x="112.5" y="216" width="15" height="20" as="geometry"/>
        </mxCell>
        <mxCell id="zfK5H7DSimlVYT1N3bj3-47" value="numeros" style="text;html=1;strokeColor=none;fillColor=none;align=center;verticalAlign=middle;whiteSpace=wrap;rounded=0;" parent="1" vertex="1">
          <mxGeometry x="282" y="139" width="40" height="20" as="geometry"/>
        </mxCell>
        <mxCell id="zfK5H7DSimlVYT1N3bj3-49" value="true" style="text;html=1;strokeColor=none;fillColor=none;align=center;verticalAlign=middle;whiteSpace=wrap;rounded=0;" parent="1" vertex="1">
          <mxGeometry x="42" y="209" width="40" height="20" as="geometry"/>
        </mxCell>
        <mxCell id="zfK5H7DSimlVYT1N3bj3-51" value="true" style="text;html=1;strokeColor=none;fillColor=none;align=center;verticalAlign=middle;whiteSpace=wrap;rounded=0;" parent="1" vertex="1">
          <mxGeometry x="222" y="149" width="40" height="20" as="geometry"/>
        </mxCell>
        <mxCell id="zfK5H7DSimlVYT1N3bj3-52" value="&lt;div&gt;N2&lt;/div&gt;" style="text;html=1;strokeColor=none;fillColor=none;align=center;verticalAlign=middle;whiteSpace=wrap;rounded=0;" parent="1" vertex="1">
          <mxGeometry x="391.5" y="216" width="15" height="20" as="geometry"/>
        </mxCell>
        <mxCell id="zfK5H7DSimlVYT1N3bj3-54" value="true" style="text;html=1;strokeColor=none;fillColor=none;align=center;verticalAlign=middle;whiteSpace=wrap;rounded=0;" parent="1" vertex="1">
          <mxGeometry x="331" y="209" width="40" height="20" as="geometry"/>
        </mxCell>
        <mxCell id="zfK5H7DSimlVYT1N3bj3-59" style="edgeStyle=orthogonalEdgeStyle;rounded=0;orthogonalLoop=1;jettySize=auto;html=1;exitX=0;exitY=0.5;exitDx=0;exitDy=0;entryX=0.5;entryY=0;entryDx=0;entryDy=0;" parent="1" source="zfK5H7DSimlVYT1N3bj3-56" target="zfK5H7DSimlVYT1N3bj3-58" edge="1">
          <mxGeometry relative="1" as="geometry"/>
        </mxCell>
        <mxCell id="zfK5H7DSimlVYT1N3bj3-56" value="&lt;div&gt;M+ M-&lt;/div&gt;&lt;div&gt;MRC&lt;/div&gt;" style="text;html=1;strokeColor=none;fillColor=none;align=center;verticalAlign=middle;whiteSpace=wrap;rounded=0;" parent="1" vertex="1">
          <mxGeometry x="639" y="219" width="82.5" height="20" as="geometry"/>
        </mxCell>
        <mxCell id="zfK5H7DSimlVYT1N3bj3-57" value="Copy N1 to Memory" style="text;html=1;strokeColor=none;fillColor=none;align=center;verticalAlign=middle;whiteSpace=wrap;rounded=0;fontSize=9;" parent="1" vertex="1">
          <mxGeometry x="589" y="353.5" width="50" height="29" as="geometry"/>
        </mxCell>
        <mxCell id="zfK5H7DSimlVYT1N3bj3-61" value="&lt;div&gt;M+ M-&lt;/div&gt;" style="text;html=1;strokeColor=none;fillColor=none;align=center;verticalAlign=middle;whiteSpace=wrap;rounded=0;" parent="1" vertex="1">
          <mxGeometry x="607" y="209" width="40" height="20" as="geometry"/>
        </mxCell>
        <mxCell id="zfK5H7DSimlVYT1N3bj3-62" value="MRC" style="text;html=1;strokeColor=none;fillColor=none;align=center;verticalAlign=middle;whiteSpace=wrap;rounded=0;" parent="1" vertex="1">
          <mxGeometry x="719" y="209" width="40" height="20" as="geometry"/>
        </mxCell>
        <mxCell id="zfK5H7DSimlVYT1N3bj3-63" value="&lt;font style=&quot;font-size: 8px&quot;&gt;operador&lt;/font&gt;" style="text;html=1;strokeColor=none;fillColor=none;align=center;verticalAlign=middle;whiteSpace=wrap;rounded=0;" parent="1" vertex="1">
          <mxGeometry x="741" y="317" width="15" height="20" as="geometry"/>
        </mxCell>
        <mxCell id="zfK5H7DSimlVYT1N3bj3-65" value="true" style="text;html=1;strokeColor=none;fillColor=none;align=center;verticalAlign=middle;whiteSpace=wrap;rounded=0;" parent="1" vertex="1">
          <mxGeometry x="767" y="309" width="40" height="20" as="geometry"/>
        </mxCell>
        <mxCell id="zfK5H7DSimlVYT1N3bj3-66" value="show" style="text;html=1;strokeColor=none;fillColor=none;align=center;verticalAlign=middle;whiteSpace=wrap;rounded=0;" parent="1" vertex="1">
          <mxGeometry x="777" y="374" width="40" height="20" as="geometry"/>
        </mxCell>
        <mxCell id="zfK5H7DSimlVYT1N3bj3-69" value="" style="shape=parallelogram;perimeter=parallelogramPerimeter;whiteSpace=wrap;html=1;" parent="1" vertex="1">
          <mxGeometry x="667" y="369" width="60" height="30" as="geometry"/>
        </mxCell>
        <mxCell id="zfK5H7DSimlVYT1N3bj3-70" value="send" style="text;html=1;strokeColor=none;fillColor=none;align=center;verticalAlign=middle;whiteSpace=wrap;rounded=0;" parent="1" vertex="1">
          <mxGeometry x="677" y="374" width="40" height="20" as="geometry"/>
        </mxCell>
        <mxCell id="zfK5H7DSimlVYT1N3bj3-83" style="edgeStyle=orthogonalEdgeStyle;rounded=0;orthogonalLoop=1;jettySize=auto;html=1;exitX=0;exitY=0.5;exitDx=0;exitDy=0;entryX=0.5;entryY=0;entryDx=0;entryDy=0;" parent="1" source="zfK5H7DSimlVYT1N3bj3-71" edge="1">
          <mxGeometry relative="1" as="geometry">
            <mxPoint x="121" y="309.33333333333337" as="targetPoint"/>
            <Array as="points">
              <mxPoint x="121" y="289"/>
            </Array>
          </mxGeometry>
        </mxCell>
        <mxCell id="zfK5H7DSimlVYT1N3bj3-89" style="edgeStyle=orthogonalEdgeStyle;rounded=0;orthogonalLoop=1;jettySize=auto;html=1;exitX=1;exitY=0.5;exitDx=0;exitDy=0;entryX=0.5;entryY=0;entryDx=0;entryDy=0;" parent="1" source="zfK5H7DSimlVYT1N3bj3-71" target="zfK5H7DSimlVYT1N3bj3-75" edge="1">
          <mxGeometry relative="1" as="geometry">
            <Array as="points">
              <mxPoint x="519" y="289"/>
            </Array>
          </mxGeometry>
        </mxCell>
        <mxCell id="zfK5H7DSimlVYT1N3bj3-71" value="" style="rhombus;whiteSpace=wrap;html=1;" parent="1" vertex="1">
          <mxGeometry x="440.5" y="259" width="60" height="60" as="geometry"/>
        </mxCell>
        <mxCell id="zfK5H7DSimlVYT1N3bj3-95" style="edgeStyle=orthogonalEdgeStyle;rounded=0;orthogonalLoop=1;jettySize=auto;html=1;exitX=0.5;exitY=1;exitDx=0;exitDy=0;entryX=0.5;entryY=1;entryDx=0;entryDy=0;" parent="1" source="zfK5H7DSimlVYT1N3bj3-75" target="zfK5H7DSimlVYT1N3bj3-10" edge="1">
          <mxGeometry relative="1" as="geometry">
            <Array as="points">
              <mxPoint x="519" y="469"/>
              <mxPoint x="122" y="469"/>
            </Array>
          </mxGeometry>
        </mxCell>
        <mxCell id="zfK5H7DSimlVYT1N3bj3-75" value="" style="shape=parallelogram;perimeter=parallelogramPerimeter;whiteSpace=wrap;html=1;" parent="1" vertex="1">
          <mxGeometry x="470" y="349" width="97.5" height="31" as="geometry"/>
        </mxCell>
        <mxCell id="zfK5H7DSimlVYT1N3bj3-76" value="&lt;div&gt;Copy once&lt;br&gt;&lt;/div&gt;&lt;div&gt; N2 = N1&lt;/div&gt;" style="text;html=1;strokeColor=none;fillColor=none;align=center;verticalAlign=middle;whiteSpace=wrap;rounded=0;" parent="1" vertex="1">
          <mxGeometry x="468" y="353.5" width="101.5" height="20" as="geometry"/>
        </mxCell>
        <mxCell id="zfK5H7DSimlVYT1N3bj3-99" value="=" style="text;html=1;strokeColor=none;fillColor=none;align=center;verticalAlign=middle;whiteSpace=wrap;rounded=0;fontSize=29;" parent="1" vertex="1">
          <mxGeometry x="463" y="279" width="15" height="20" as="geometry"/>
        </mxCell>
        <mxCell id="zfK5H7DSimlVYT1N3bj3-100" value="true" style="text;html=1;strokeColor=none;fillColor=none;align=center;verticalAlign=middle;whiteSpace=wrap;rounded=0;" parent="1" vertex="1">
          <mxGeometry x="490" y="269" width="40" height="20" as="geometry"/>
        </mxCell>
        <mxCell id="zfK5H7DSimlVYT1N3bj3-102" value="CALCULADORA" style="text;html=1;strokeColor=none;fillColor=none;spacing=5;spacingTop=-20;whiteSpace=wrap;overflow=hidden;rounded=0;fontSize=29;" parent="1" vertex="1">
          <mxGeometry x="259.66999999999996" y="19" width="256.25" height="31" as="geometry"/>
        </mxCell>
      </root>
    </mxGraphModel>
  </diagram>
</mxfile>
